<svg width="168.000854" height="35.188477" viewBox="0 0 168.001 35.1885" fill="none" xmlns="http://www.w3.org/2000/svg" xmlns:xlink="http://www.w3.org/1999/xlink">
	<desc>
			Created with Pixso.
	</desc>
	<defs/>
	<path id="Vector" d="M164.161 29.7056L164.488 29.7056L164.488 27.5503L165.264 27.5503L165.264 27.271L163.384 27.271L163.384 27.5503L164.161 27.5503L164.161 29.7056Z" fill="#FBF503" fill-opacity="1.000000" fill-rule="nonzero"/>
	<path id="Vector" d="M165.893 27.7275L166.545 29.7056L166.87 29.7056L167.522 27.7275L167.522 29.7056L167.793 29.7056L167.793 27.271L167.398 27.271L166.719 29.3501L166.017 27.271L165.566 27.271L165.566 29.7056L165.893 29.7056L165.893 27.7275Z" fill="#FBF503" fill-opacity="1.000000" fill-rule="nonzero"/>
	<path id="Vector" d="M112.027 23.8735L112.027 13.8086C112.027 11.7554 112.981 10.2852 115.014 10.2852L127.556 10.2852C127.633 10.2852 127.707 10.2085 127.707 10.1328L127.707 8.13037C127.707 8.11279 127.702 8.0957 127.695 8.0791L112.36 8.0791C109.036 8.50391 107.412 10.8325 107.412 13.8086L107.412 23.8735C107.412 25.9268 106.432 27.397 104.426 27.397L91.1799 27.397C91.1047 27.397 91.0293 27.4482 91.0293 27.5493L91.0293 29.5522C91.0293 29.6353 91.0801 29.6992 91.1395 29.7197L106.178 29.7197C110.097 29.6167 112.027 27.1011 112.027 23.8735Z" fill="#FBF503" fill-opacity="1.000000" fill-rule="nonzero"/>
	<path id="Vector" d="M60.4989 29.7197L64.9027 29.7197C64.9622 29.6992 65.0129 29.6353 65.0129 29.5527L65.0129 23.1382C65.0129 21.085 66.1667 19.665 67.8477 19.665L85.9868 19.665C90.0762 19.665 92.0585 17.1299 92.0585 13.8086C92.0585 10.8325 90.4363 8.50391 87.1106 8.0791L60.4175 8.0791C60.4098 8.0957 60.3967 8.10889 60.3967 8.13037L60.3967 10.1328C60.3967 10.2339 60.4468 10.2852 60.547 10.2852L84.4562 10.2852C86.4885 10.2852 87.4419 11.7554 87.4419 13.8086C87.4419 15.8623 86.4885 17.333 84.4562 17.333L65.5397 17.333C62.6045 17.333 60.3967 19.8433 60.3967 23.1382L60.3967 29.5532C60.3964 29.6353 60.4318 29.6992 60.4989 29.7197Z" fill="#FBF503" fill-opacity="1.000000" fill-rule="nonzero"/>
	<path id="Vector" d="M127.634 27.3979L151.719 27.3979C151.793 27.3979 151.843 27.4482 151.843 27.499L151.843 29.5527C151.843 29.6543 151.919 29.7051 151.993 29.7051L156.334 29.7051C156.411 29.7051 156.484 29.6543 156.484 29.5527L156.484 27.5498C156.484 27.4736 156.561 27.3979 156.635 27.3979L160.95 27.3979C161.05 27.3979 161.1 27.3213 161.1 27.2461L161.1 25.2173C161.1 25.1411 161.05 25.0654 160.95 25.0654L156.635 25.0654C156.561 25.0654 156.484 24.9888 156.484 24.9136L156.484 10.2852C156.484 9.09131 156.043 8.33105 155.301 8.0791L154.045 8.0791C153.654 8.18018 153.228 8.36133 152.772 8.63672L126.831 24.7358C125.827 25.3691 125.475 26.0786 125.727 26.6113C125.927 27.0679 126.503 27.3979 127.634 27.3979ZM131.396 24.71L151.491 12.2119C151.618 12.1104 151.87 12.1357 151.87 12.4146L151.87 24.9136C151.87 24.9897 151.793 25.0654 151.719 25.0654L131.521 25.0654C131.347 25.0654 131.269 25.0156 131.246 24.9639C131.219 24.8623 131.269 24.7866 131.396 24.71Z" fill="#FBF503" fill-opacity="1.000000" fill-rule="nonzero"/>
	<path id="Vector" d="M16.8273 0C18.7842 0.366699 20.7076 0.890625 22.6221 1.43652C23.7167 1.75635 24.8091 2.08691 25.894 2.43896C27.5984 2.98486 29.2953 3.60254 30.839 4.52393C31.5304 4.9458 32.1946 5.42285 32.7621 6.00439C33.3771 6.6084 33.8805 7.3252 34.2499 8.10449C34.923 9.51758 35.1536 11.0962 35.2217 12.6479C35.2538 13.6606 35.2517 14.6821 35.0634 15.6816C34.907 16.5503 34.629 17.4072 34.1667 18.1616C33.7585 18.8276 33.191 19.4043 32.5022 19.7754C31.8414 20.1338 31.0852 20.3042 30.3359 20.2891C29.1995 20.3008 28.0968 19.937 27.0769 19.4595C27.0582 16.0503 27.0739 12.6401 27.0688 9.23193C27.0619 8.61523 27.1036 7.9917 26.9797 7.3833C26.8926 6.91211 26.7014 6.43701 26.333 6.1167C26.0891 5.89551 25.7725 5.77051 25.4545 5.70312C25.1328 5.6416 24.7897 5.7793 24.5906 6.03857C24.2595 6.4541 24.1727 7.00635 24.1577 7.52393C24.155 16.6504 24.161 25.7778 24.155 34.9038C21.7124 34.1255 19.2695 33.3467 16.8273 32.5664C16.825 21.7109 16.826 10.8555 16.8273 0Z" fill="#FBF503" fill-opacity="1.000000" fill-rule="nonzero"/>
	<path id="Vector" d="M5.84839 23.0962C9.03284 21.9629 12.214 20.8184 15.3998 19.689C15.4049 20.9453 15.3998 22.2026 15.4019 23.4604C15.3998 23.6309 15.4105 23.8022 15.3895 23.9717C12.8715 24.8691 10.358 25.7817 7.84265 26.6851C7.4939 26.8174 7.13611 26.9673 6.86731 27.2349C6.74194 27.3604 6.63977 27.5464 6.70825 27.7256C6.79443 27.9375 7.00952 28.0532 7.20801 28.1401C7.75989 28.3657 8.36316 28.3979 8.95105 28.4248C9.60645 28.4146 10.2649 28.3652 10.9066 28.2227C11.3405 28.1367 11.7581 27.9902 12.1716 27.834C13.2466 27.4429 14.3215 27.0493 15.3982 26.6621C15.4059 27.7251 15.3995 28.7891 15.4015 29.8535C15.3982 30.0659 15.4113 30.2798 15.3901 30.4912C14.068 30.73 12.7301 30.8916 11.3862 30.9136C8.68018 30.9746 5.96765 30.5537 3.39722 29.7036C2.55432 29.458 1.71655 29.1309 1.01245 28.5933C0.624878 28.2915 0.278198 27.9126 0.101807 27.4463C-0.0458984 27.0508 -0.0351562 26.5947 0.148926 26.2139C0.326294 25.8335 0.63623 25.5332 0.977661 25.2993C1.76733 24.751 2.63892 24.333 3.52148 23.96C4.28271 23.6343 5.07178 23.3804 5.84839 23.0962Z" fill="#FBF503" fill-opacity="1.000000" fill-rule="nonzero"/>
	<path id="Vector" d="M31.4712 21.6646C32.1934 21.5806 32.9203 21.561 33.6465 21.5347C36.0349 21.5439 38.436 21.8423 40.7209 22.563C41.1692 22.6997 41.6035 22.8774 42.0502 23.02C42.8466 23.3125 43.6436 23.667 44.2809 24.2427C44.6637 24.5938 44.9941 25.0669 44.9984 25.6064C45.0211 26.0464 44.8234 26.4683 44.5394 26.7925C43.9996 27.4009 43.2861 27.8188 42.5699 28.1836C41.8073 28.5747 40.9875 28.8267 40.1879 29.124C35.3068 30.8862 30.4249 32.6475 25.5448 34.4111C25.5438 33.0366 25.5461 31.6626 25.5438 30.2896C25.5511 30.2344 25.5215 30.1387 25.5983 30.124C29.3123 28.7964 33.0251 27.4644 36.7388 26.1323C37.2408 25.9434 37.7816 25.8066 38.2075 25.4648C38.382 25.3271 38.5526 25.1079 38.4672 24.8716C38.3779 24.665 38.1648 24.5508 37.9688 24.4653C37.4128 24.2441 36.8076 24.2012 36.2163 24.1846C35.2906 24.1909 34.3571 24.3057 33.4764 24.604C30.8312 25.5356 28.1908 26.479 25.5448 27.4077C25.5452 25.9321 25.5438 24.457 25.5455 22.9819C27.4592 22.3066 29.4583 21.8975 31.4712 21.6646Z" fill="#FBF503" fill-opacity="1.000000" fill-rule="nonzero"/>
	<path id="Vector" d="M42.322 31.8301C42.8995 31.7583 43.5029 32.0186 43.849 32.4888C44.2268 32.9746 44.2959 33.6748 44.0291 34.23C43.7594 34.8052 43.1438 35.2085 42.5057 35.1875C41.9188 35.2007 41.3502 34.8574 41.0613 34.3481C40.8004 33.9004 40.769 33.3267 40.9711 32.8496C41.1986 32.2988 41.7338 31.8975 42.322 31.8301ZM42.1964 32.1406C41.873 32.2144 41.5795 32.4116 41.3864 32.6821C41.1542 33.001 41.0663 33.4224 41.1545 33.8081C41.2286 34.1665 41.4541 34.4868 41.7584 34.6846C42.2272 34.9941 42.8842 34.9771 43.3329 34.6372C43.7955 34.3086 44.0153 33.6782 43.856 33.1318C43.7577 32.7622 43.4952 32.4478 43.1644 32.2646C42.8705 32.1084 42.5198 32.0635 42.1964 32.1406Z" fill="#FBF503" fill-opacity="1.000000" fill-rule="nonzero"/>
	<path id="Vector" d="M41.7964 32.5356C42.0973 32.5342 42.3993 32.5352 42.7006 32.5347C42.871 32.5371 43.0587 32.5771 43.1797 32.7085C43.3009 32.8462 43.3109 33.0469 43.2775 33.2197C43.2584 33.334 43.1586 33.4014 43.0861 33.481C43.1489 33.5371 43.2297 33.5898 43.2448 33.6812C43.2795 33.8564 43.2428 34.0396 43.2986 34.2109C43.3336 34.2715 43.3694 34.3325 43.3721 34.4048C43.2471 34.4087 43.1226 34.4062 42.9976 34.4082C42.9135 34.209 42.9766 33.9854 42.9237 33.7803C42.9031 33.6963 42.8169 33.6445 42.735 33.647C42.5312 33.6387 42.3264 33.6445 42.1237 33.6445C42.1204 33.8989 42.1307 34.1543 42.1173 34.4082C42.0115 34.4062 41.9045 34.4062 41.7983 34.4087C41.7926 33.7832 41.7964 33.1597 41.7964 32.5356ZM42.123 32.8325C42.1234 33.0049 42.1234 33.1772 42.123 33.3501C42.3051 33.3511 42.4874 33.3525 42.6702 33.3506C42.7607 33.3501 42.866 33.333 42.9248 33.2554C42.9869 33.1572 42.9856 33.0264 42.9298 32.9268C42.8827 32.8481 42.7834 32.8398 42.7019 32.835C42.5089 32.8286 42.3158 32.8325 42.123 32.8325Z" fill="#FBF503" fill-opacity="1.000000" fill-rule="nonzero"/>
</svg>
